<?xml version="1.0" encoding="utf-8"?>
<!-- Generator: Adobe Illustrator 17.1.0, SVG Export Plug-In . SVG Version: 6.00 Build 0)  -->
<!DOCTYPE svg PUBLIC "-//W3C//DTD SVG 1.1//EN" "http://www.w3.org/Graphics/SVG/1.1/DTD/svg11.dtd">
<svg version="1.1" id="Layer_1" xmlns="http://www.w3.org/2000/svg" xmlns:xlink="http://www.w3.org/1999/xlink" x="0px" y="0px"
	 viewBox="0 0 361.315 431.324" enable-background="new 0 0 361.315 431.324" xml:space="preserve">
<g>
	<line fill="#05714B" x1="280.36" y1="347.93" x2="280.36" y2="359.275"/>
	<polyline fill="#05714B" points="289.151,346.361 293.009,356.28 293.009,356.28 	"/>
	<path fill="#05714B" d="M198.835,78.059L198.835,78.059c-1.638-0.286-9.286-1.57-18.219-1.57c-8.925,0-16.572,1.285-18.144,1.57
		c-0.933,0.142-1.286-0.714-0.572-1.208c0.639-0.504,18.715-14.278,18.715-14.278s18.153,13.774,18.723,14.278
		C200.054,77.345,199.693,78.201,198.835,78.059z M167.54,167.4L167.54,167.4c0,0-1,0.361-1.209,1.217
		c3.79,2.92,6.361,9.559,14.286,9.559c7.933,0,10.581-6.639,14.362-9.559c-0.286-0.856-1.209-1.217-1.209-1.217
		s-5.001,1.217-13.153,1.217C172.473,168.617,167.54,167.4,167.54,167.4z M180.617,156.27L180.617,156.27
		c-2.21,0-2.639-0.79-4.144-0.79c-1.428,0-4.209,1.141-4.856,2.14c0.075,0.571,0.286,0.999,0.647,1.427
		c3.209,0.504,4.639,2.283,8.353,2.283c3.714,0,5.142-1.779,8.362-2.283c0.428-0.428,0.57-0.856,0.647-1.427
		c-0.572-0.999-3.362-2.14-4.791-2.14C183.331,155.48,182.835,156.27,180.617,156.27z M361.097,190.372L361.097,190.372
		c-0.21,4.357-0.64,8.638-1.145,12.852c-20.428,3.423-27.79-14.849-48.725-13.917c1.211,4.423,2.286,8.989,3,13.631
		c17.288-0.077,24.288,16.124,43.516,13.698c-1.01,4.927-2.219,9.846-3.647,14.63c-15.221,1.494-20.582-13.631-38.153-13.203
		c0.142,2.502,0.209,4.994,0.209,7.562c0,1.427,0,2.854-0.067,4.214c15-0.143,19.858,13.697,34.153,13.051
		c-1.714,4.86-3.714,9.57-5.933,14.203c-10.286-0.496-13.792-13.699-29.439-12.624c-0.496,3.349-1.067,6.706-1.781,9.987
		c13.572-0.931,16.504,11.559,26.219,12.557c-2.505,4.5-5.142,8.924-8,13.128c-5.714-3.063-10.714-12.347-21.647-12.919
		c1.065-3.423,2.065-6.99,2.923-10.482c-9.714,0-20.791-3.786-30.077-12.27c3-17.131-23.581-34.539-23.581-47.096
		c0-13.631,6.933-21.127,6.933-39.534c0-13.555-6.647-28.403-16.647-38.458c-1.925-1.998-3.925-3.567-6.221-5.004
		c9.221,11.349,16.221,24.837,16.221,40.39c0,17.274-8,26.406-8,42.387c0,15.914,23.361,29.755,23.361,46.163
		c0,6.497-2.066,12.852-8.923,25.266c10.495,10.492,24.143,16.197,33,16.197c2.867,0,4.362-0.927,5.439-3.14
		c0.858-1.928,1.714-3.927,2.495-5.849c9.505,0.354,13.867,8.988,19.077,12.413c-2.858,3.853-5.935,7.563-9.077,11.203
		c-3.495-3.924-8.286-10.417-15.21-12.273c-1.219,2.427-2.504,4.781-3.934,7.136c6,1.57,10.077,7.635,13.22,11.56
		c-3.362,3.568-6.935,6.922-10.648,10.133c-2.286-3.567-5.858-8.135-9.933-10.561c-1.43,1.999-3,3.997-4.572,5.924
		c3.363,2.283,6.428,6.422,8.363,9.847c-4.22,3.425-8.648,6.636-13.22,9.705c-2.286-18.339-27.295-30.898-20.582-52.164
		c-2.209,3.712-4.856,8.422-4.856,14.06c0,15.412,16.438,27.615,17.723,42.956c-3.362,1.998-6.858,3.925-10.438,5.709
		c-0.572-16.768-17.934-35.18-17.934-49.021c0-15.414,20.229-30.9,20.229-49.099c0-18.12-23.372-30.753-23.372-46.735
		c0-15.979,9.933-25.188,9.933-45.592c0-14.991-7.144-30.183-18.144-39.895c-1.933-1.712-3.856-3.062-6.142-4.281
		c10.352,12.424,16.353,23.762,16.353,40.895c0,19.263-11.353,29.897-11.353,48.732c0,18.834,22.858,29.327,22.858,46.877
		c0,17.627-21.286,32.4-21.286,50.455c0,16.41,18.791,32.823,19.077,52.303c-4.077,1.784-8.295,3.425-12.581,4.924
		c2.428-19.694-18.716-40.031-18.716-56.086c0-17.551,22.077-32.608,22.077-51.596c0-18.9-22.438-27.682-22.438-47.163
		c0-19.404,13.79-30.182,13.79-51.585c0-16.771-8.286-31.828-20.362-41.103c-0.286-0.219-0.496-0.427-0.781-0.646
		c-1.142-0.781-2.077,0.219-1.219,1.217c8.504,10.625,13.077,21.479,13.077,37.393c0,19.691-15.791,35.605-15.791,54.659
		c0,22.402,21.219,28.822,21.219,47.229c0,18.482-22.791,33.189-22.791,52.737c0,18.125,21.582,38.247,17.858,59.227
		c-4.286,1.069-8.716,2.069-13.144,2.853c4.076-26.046-17.077-44.812-17.077-61.796c0-18.48,23.581-34.967,23.581-53.021
		c0-16.979-16.933-22.544-19.151-39.952c-0.286-2.359-2.211-4.137-4.858-3.709c-3.428,0.637-7.858,2.92-14.79,2.92
		c-6.925,0-11.286-2.283-14.791-2.92c-2.572-0.428-4.495,1.35-4.857,3.709c-2.209,17.408-19.144,22.973-19.144,39.952
		c0,18.055,23.648,34.541,23.648,53.021c0,16.983-21.218,35.75-17.152,61.796c-4.428-0.784-8.856-1.784-13.143-2.853
		c-3.714-20.98,17.867-41.102,17.867-59.227c0-19.548-22.801-34.255-22.801-52.737c0-18.406,21.297-24.827,21.297-47.229
		c0-19.053-15.858-34.968-15.858-54.659c0-15.914,4.572-26.768,13.142-37.393c0.781-0.998-0.142-1.998-1.284-1.217
		c-0.286,0.219-0.505,0.427-0.79,0.646c-12.067,9.275-20.363,24.332-20.363,41.103c0,21.403,13.79,32.181,13.79,51.585
		c0,19.482-22.43,28.263-22.43,47.163c0,18.987,22.077,34.045,22.077,51.596c0,16.055-21.151,36.392-18.723,56.086
		c-4.286-1.499-8.428-3.14-12.572-4.924c0.286-19.479,19.077-35.892,19.077-52.303c0-18.055-21.296-32.828-21.296-50.455
		c0-17.55,22.867-28.042,22.867-46.877c0-18.835-11.362-29.469-11.362-48.732c0-17.133,6-28.471,16.439-40.895
		c-2.362,1.218-4.22,2.568-6.22,4.281c-11,9.712-18.151,24.904-18.151,39.895c0,20.404,9.933,29.613,9.933,45.592
		c0,15.981-23.286,28.615-23.286,46.735c0,18.198,20.219,33.685,20.219,49.099c0,13.842-17.438,32.253-18.009,49.021
		c-3.572-1.784-7-3.711-10.428-5.709c1.286-15.341,17.714-27.544,17.714-42.956c0-5.638-2.638-10.348-4.858-14.06
		c6.791,21.267-18.286,33.825-20.572,52.164c-4.505-3.069-8.935-6.28-13.22-9.705c2-3.425,5.001-7.564,8.43-9.847
		c-1.644-1.927-3.144-3.925-4.644-5.924c-4,2.427-7.644,6.994-9.931,10.561c-3.644-3.211-7.216-6.564-10.646-10.133
		c3.144-3.925,7.288-9.989,13.217-11.56c-1.358-2.354-2.714-4.709-3.928-7.136c-6.931,1.857-11.646,8.35-15.219,12.273
		c-3.144-3.64-6.217-7.35-9.075-11.203c5.288-3.425,9.647-12.06,19.148-12.413c0.786,1.922,1.572,3.921,2.5,5.849
		c1,2.213,2.501,3.14,5.43,3.14c8.789,0,22.433-5.705,32.939-16.197c-6.791-12.414-8.858-18.769-8.858-25.266
		c0-16.408,23.363-30.249,23.363-46.163c0-15.981-8.077-25.113-8.077-42.387c0-15.553,7.077-29.042,16.219-40.39
		c-2.286,1.437-4.286,3.006-6.219,5.004c-9.923,10.055-16.572,24.903-16.572,38.458c0,18.407,6.857,25.903,6.857,39.534
		c0,12.557-26.576,29.965-23.572,47.096c-9.292,8.484-20.367,12.27-30.084,12.27c0.858,3.492,1.858,7.06,2.93,10.482
		c-10.859,0.572-15.861,9.855-21.648,12.919c-2.857-4.204-5.501-8.628-8.001-13.128c9.716-0.998,12.645-13.487,26.22-12.557
		c-0.714-3.281-1.286-6.639-1.786-9.987c-15.575-1.075-19.148,12.128-29.437,12.624c-2.142-4.633-4.144-9.343-5.93-14.203
		c14.289,0.646,19.148-13.194,34.153-13.051c-0.072-1.36-0.072-2.787-0.072-4.214c0-2.568,0.072-5.061,0.214-7.562
		c-17.577-0.428-22.935,14.697-38.153,13.203c-1.358-4.784-2.572-9.703-3.643-14.63c19.22,2.425,26.222-13.775,43.511-13.698
		c0.786-4.643,1.788-9.208,3.073-13.631c-21.006-0.932-28.293,17.34-48.728,13.917c-0.572-4.214-0.928-8.495-1.142-12.852
		c23.72,2.72,32.65-16.836,54.3-14.411c2.072-5.203,4.43-10.207,7.074-14.983C34.437,156.193,25.22,178.891,0,175.39
		C2.714,78.059,82.52,0,180.617,0s177.908,78.059,180.699,175.39c-25.296,3.501-34.516-19.196-61.669-14.412
		c2.648,4.776,5.076,9.78,7.076,14.983C328.371,173.535,337.304,193.092,361.097,190.372z M102.957,114.739L102.957,114.739
		c-13.295-5.422-29.439-4.214-43.156,4.642c-2.144-12.775-9.075-24.19-19.004-31.048c-1.359-0.923-2.788,0-2.646,1.578
		C40.223,116.955,24.434,140.356,5,160.978c20.004,5.994,37.081-19.767,63.089-10.777
		C77.376,136.361,89.234,124.298,102.957,114.739z M180.617,98.396L180.617,98.396c-16.791,0-30.792,9.418-34.506,21.697
		c-0.286,0.923,0.144,1.57,1.21,1.065c3-1.35,6.439-1.997,10.153-1.997c6.857,0,12.857,2.502,16.429,6.849
		c1.57,5.212,1.714,12.699-0.067,17.056c-2.79-0.637-3.79-2.854-6.581-2.854c-2.714,0-4.857,1.931-9.495,1.931
		c-4.714,0-5.219-2.15-8.295-2.15c-3.639,0-4.286,3.72-4.286,7.858c0,18.692,17.153,44.375,35.439,44.375
		c18.295,0,35.439-25.683,35.439-44.375c0-4.138-0.858-7.781-4.572-8.286c-1.923,1.361-3.639,2.578-7.935,2.578
		c-4.714,0-6-1.931-8.714-1.931c-3.286,0-3,6.992-6.933,7.421c-2.639-6.346-2.781-14.411-0.572-21.622
		c3.581-4.347,9.581-6.849,16.439-6.849c3.714,0,7.219,0.647,10.219,1.997c1.067,0.505,1.428-0.142,1.143-1.065
		C211.484,107.814,197.407,98.396,180.617,98.396z M207.34,125.154L207.34,125.154c-4,0-8.714,1.218-11.714,4.566
		c-0.286,0.856-0.286,2.217,0.143,3.073c7.285-2.502,13.714-2.569,16.857,0.922c1.648-1.493,2.143-2.853,2.143-4.422
		C214.769,126.867,212.34,125.154,207.34,125.154z M148.683,133.715L148.683,133.715c3.505-3.567,10.935-3.424,18.648-0.57
		c0.286-3.776-6.571-7.991-13.429-7.991c-4.933,0-7.438,1.713-7.438,4.139C146.464,130.862,147.036,132.223,148.683,133.715z
		 M264.284,70.497L264.284,70.497c-13.219,0.932-24.79,5.499-34.077,13.06c4-11.205,9-20.984,15.363-30.468
		c-16.867,1.778-31.009,7.914-41.305,18.483l-8.001-21.127l17.867-15.772l-23.933-1.636l-9.581-22.269l-9.572,22.269l-23.934,1.636
		l17.934,15.772l-8.076,21.127c-10.286-10.569-24.363-16.705-41.221-18.483c6.286,9.483,11.354,19.263,15.286,30.468
		c-9.286-7.562-20.791-12.128-34.077-13.06c8,10.207,15,21.051,20.22,32.751c0.57,1.36,1.856,1.788,3.209,1.075
		c18.153-8.989,38.581-14.059,60.23-14.059c21.648,0,42.086,5.07,60.229,14.059c1.361,0.713,2.647,0.285,3.219-1.075
		C249.284,91.547,256.351,80.703,264.284,70.497z M293.218,150.201L293.218,150.201c25.934-8.99,43.011,16.77,63.087,10.777
		c-19.43-20.622-35.288-44.024-33.144-71.067c0.067-1.578-1.363-2.501-2.714-1.578c-9.867,6.858-16.79,18.273-18.934,31.048
		c-13.791-8.856-29.867-10.064-43.163-4.642C271.999,124.298,283.865,136.361,293.218,150.201z"/>
	<polygon fill="#05714B" points="280.36,359.275 280.36,359.275 278.57,359.275 278.57,347.93 274.428,347.93 274.428,346.361 
		284.581,346.361 284.581,347.93 280.36,347.93 	"/>
	<polygon fill="#05714B" points="293.009,356.28 293.009,356.28 296.867,346.361 299.723,346.361 299.723,359.275 297.867,359.275 
		297.867,348.502 293.504,359.275 292.362,359.275 288.076,348.502 288.076,359.275 286.295,359.275 286.295,346.361 
		289.151,346.361 	"/>
</g>
<g>
	<path fill="#05714B" d="M238.786,416.121L238.786,416.121c0,9.886-5.552,15.203-15.884,15.203
		c-10.113,0-15.805-5.392-15.805-15.054V398.67h11.392v17.001c0,4.719,1.268,6.815,4.343,6.815c3.065,0,4.562-1.871,4.562-7.265
		V398.67h11.392V416.121z"/>
	<polygon fill="#05714B" points="75.28,406.833 75.28,406.833 75.28,430.726 63.746,430.726 63.746,406.833 54.085,406.833 
		54.085,398.67 84.942,398.67 84.942,406.833 	"/>
	<path fill="#05714B" d="M104.341,406.01L104.341,406.01l-2.847,10.936h5.768L104.341,406.01z M111.756,430.726L111.756,430.726
		l-1.947-5.917H98.949l-2.023,5.917H85.467l11.609-32.056h14.604l11.534,32.056H111.756z"/>
	<path fill="#05714B" d="M275.785,428.18L275.785,428.18l-3.454-8.239c-2.097,1.498-4.113,2.847-7.488,2.847
		c-4.492,0-7.487-3.67-7.487-8.24c0-4.568,2.626-8.463,7.338-8.463c2.995,0,5.541,1.498,7.638,3.145l3.374-8.089
		c-3.823-1.947-7.638-3.07-12.879-3.07c-9.664,0-17.002,6.591-17.002,16.402c0,10.336,7.108,16.852,17.371,16.852
		C268.816,431.324,272.78,430.052,275.785,428.18z"/>
	<polygon fill="#05714B" points="301.692,430.726 301.692,430.726 294.435,419.042 294.435,430.726 283.272,430.726 283.272,398.67 
		294.435,398.67 294.435,410.429 301.243,398.67 313.684,398.67 303.19,414.473 315.031,430.726 	"/>
	<path fill="#05714B" d="M34.836,431.324L34.836,431.324c7.266,0,14.83-2.546,14.83-10.784c0-7.34-6.291-9.362-11.234-10.411
		c-3.67-0.824-5.469-1.198-5.469-2.696c0-1.947,2.547-2.097,3.82-2.097c3.371,0,6.441,1.348,9.139,2.995l2.996-7.265
		c-3.971-1.723-8.689-2.996-13.108-2.996c-7.489,0-13.406,3.595-13.406,10.935c0,5.991,4.568,8.312,9.587,9.512
		c3.445,0.898,5.692,1.123,5.692,2.846c0,1.723-1.724,2.247-3.37,2.247c-3.67,0-7.115-1.572-9.288-3.445l-3.67,7.041
		C25.324,429.752,30.043,431.324,34.836,431.324z"/>
	<path fill="#05714B" d="M332.033,431.324L332.033,431.324c7.258,0,14.746-2.546,14.746-10.784c0-7.34-6.29-9.362-11.152-10.411
		c-3.674-0.824-5.471-1.198-5.471-2.696c0-1.947,2.476-2.097,3.824-2.097c3.294,0,6.439,1.348,9.055,2.995l2.995-7.265
		c-3.894-1.723-8.605-2.996-13.028-2.996c-7.568,0-13.479,3.595-13.479,10.935c0,5.991,4.563,8.312,9.585,9.512
		c3.523,0.898,5.69,1.123,5.69,2.846c0,1.723-1.647,2.247-3.295,2.247c-3.674,0-7.189-1.572-9.364-3.445l-3.595,7.041
		C322.438,429.752,327.231,431.324,332.033,431.324z"/>
	<path fill="#05714B" d="M351.881,402.863L351.881,402.863v-0.074c0-2.547,2.097-4.719,4.792-4.719c2.616,0,4.643,2.098,4.643,4.719
		s-2.026,4.793-4.723,4.793C353.897,407.582,351.881,405.41,351.881,402.863z M360.637,402.789L360.637,402.789
		c0-2.247-1.647-4.119-3.964-4.119c-2.396,0-4.193,1.872-4.193,4.119v0.074c0,2.247,1.797,4.12,4.113,4.12
		C358.989,406.983,360.637,405.11,360.637,402.789z M354.796,400.242L354.796,400.242h2.177c0.599,0,1.118,0.225,1.417,0.524
		c0.23,0.225,0.38,0.525,0.38,0.898v0.075c0,0.749-0.529,1.273-1.278,1.423l1.498,1.947h-0.818l-1.428-1.872h-0.07h-1.198v1.872
		h-0.679V400.242z M356.893,402.639L356.893,402.639c0.679,0,1.128-0.299,1.128-0.898c0-0.524-0.379-0.824-1.128-0.824h-1.418v1.723
		H356.893z"/>
	<path fill="#05714B" d="M153.545,418.742L153.545,418.742c3.974-1.424,6.07-5.392,6.07-9.062c0-7.564-5.172-11.01-12.51-11.01
		h-17.301v32.056h11.161v-9.512h2.775l5.761,9.512h11.99L153.545,418.742z M148.384,409.68L148.384,409.68
		c0,2.098-1.348,3.37-3.524,3.37h-3.894v-6.741h3.974c2.097,0,3.444,1.124,3.444,3.296V409.68z"/>
	<path fill="#05714B" d="M192.492,414.323L192.492,414.323c4.123-0.898,6.219-3.221,6.219-7.115c0-5.468-4.123-8.538-11.311-8.538
		h-18.27v32.056h17.521c8.466,0,12.739-2.996,12.739-9.062C199.391,417.469,196.685,414.698,192.492,414.323z M180.142,405.635
		L180.142,405.635h4.044c2.096,0,3.443,0.898,3.443,2.772v0.074c0,1.799-1.277,2.847-3.523,2.847h-3.964V405.635z M187.85,420.765
		L187.85,420.765c0,1.872-1.418,2.995-3.664,2.995h-4.044v-5.991h4.113c2.177,0,3.595,0.974,3.595,2.921V420.765z"/>
</g>
</svg>
