<?xml version="1.0" encoding="utf-8"?>
<!-- Generator: Adobe Illustrator 17.1.0, SVG Export Plug-In . SVG Version: 6.00 Build 0)  -->
<!DOCTYPE svg PUBLIC "-//W3C//DTD SVG 1.1//EN" "http://www.w3.org/Graphics/SVG/1.1/DTD/svg11.dtd">
<svg version="1.1" id="Layer_1" xmlns="http://www.w3.org/2000/svg" xmlns:xlink="http://www.w3.org/1999/xlink" x="0px" y="0px"
	 viewBox="0 0 339.961 33.254" enable-background="new 0 0 339.961 33.254" xml:space="preserve">
<g>
	<path fill="#05714B" d="M217.432,18.051L217.432,18.051c0,9.886-5.552,15.203-15.884,15.203c-10.113,0-15.805-5.392-15.805-15.054
		V0.6h11.392v17.001c0,4.719,1.268,6.816,4.343,6.816c3.064,0,4.562-1.871,4.562-7.265V0.6h11.392V18.051z"/>
	<polygon fill="#05714B" points="53.926,8.763 53.926,8.763 53.926,32.655 42.392,32.655 42.392,8.763 32.73,8.763 32.73,0.6 
		63.588,0.6 63.588,8.763 	"/>
	<path fill="#05714B" d="M82.986,7.939L82.986,7.939L80.14,18.875h5.768L82.986,7.939z M90.401,32.655L90.401,32.655l-1.947-5.917
		H77.595l-2.023,5.917H64.112L75.722,0.6h14.604l11.534,32.056H90.401z"/>
	<path fill="#05714B" d="M254.431,30.109L254.431,30.109l-3.454-8.239c-2.097,1.498-4.113,2.847-7.488,2.847
		c-4.492,0-7.487-3.67-7.487-8.24c0-4.568,2.626-8.463,7.338-8.463c2.995,0,5.541,1.498,7.638,3.145l3.374-8.089
		C250.527,1.123,246.713,0,241.472,0c-9.664,0-17.002,6.591-17.002,16.402c0,10.336,7.108,16.852,17.371,16.852
		C247.462,33.254,251.426,31.981,254.431,30.109z"/>
	<polygon fill="#05714B" points="280.338,32.655 280.338,32.655 273.08,20.972 273.08,32.655 261.918,32.655 261.918,0.6 
		273.08,0.6 273.08,12.358 279.889,0.6 292.329,0.6 281.836,16.402 293.677,32.655 	"/>
	<path fill="#05714B" d="M13.481,33.254L13.481,33.254c7.266,0,14.83-2.546,14.83-10.784c0-7.34-6.291-9.362-11.234-10.411
		c-3.67-0.824-5.469-1.198-5.469-2.696c0-1.947,2.547-2.097,3.82-2.097c3.371,0,6.441,1.348,9.139,2.995l2.996-7.265
		C23.593,1.273,18.874,0,14.455,0C6.966,0,1.049,3.595,1.049,10.936c0,5.991,4.568,8.312,9.587,9.512
		c3.445,0.898,5.692,1.123,5.692,2.846c0,1.723-1.724,2.247-3.37,2.247c-3.67,0-7.115-1.572-9.288-3.445L0,29.136
		C3.97,31.682,8.688,33.254,13.481,33.254z"/>
	<path fill="#05714B" d="M310.679,33.254L310.679,33.254c7.258,0,14.746-2.546,14.746-10.784c0-7.34-6.29-9.362-11.152-10.411
		c-3.674-0.824-5.471-1.198-5.471-2.696c0-1.947,2.476-2.097,3.824-2.097c3.294,0,6.439,1.348,9.055,2.995l2.995-7.265
		C320.782,1.273,316.07,0,311.647,0c-7.568,0-13.479,3.595-13.479,10.936c0,5.991,4.563,8.312,9.585,9.512
		c3.523,0.898,5.69,1.123,5.69,2.846c0,1.723-1.647,2.247-3.295,2.247c-3.674,0-7.189-1.572-9.364-3.445l-3.595,7.041
		C301.084,31.682,305.877,33.254,310.679,33.254z"/>
	<path fill="#05714B" d="M330.526,4.793L330.526,4.793V4.719c0-2.547,2.097-4.719,4.792-4.719c2.616,0,4.643,2.098,4.643,4.719
		s-2.026,4.793-4.723,4.793C332.543,9.512,330.526,7.34,330.526,4.793z M339.282,4.719L339.282,4.719
		c0-2.247-1.647-4.119-3.964-4.119c-2.396,0-4.193,1.872-4.193,4.119v0.074c0,2.247,1.797,4.12,4.113,4.12
		C337.635,8.913,339.282,7.04,339.282,4.719z M333.441,2.172L333.441,2.172h2.177c0.599,0,1.118,0.225,1.417,0.524
		c0.23,0.225,0.38,0.525,0.38,0.899V3.67c0,0.749-0.529,1.273-1.278,1.423l1.498,1.947h-0.818l-1.428-1.872h-0.07h-1.198V7.04
		h-0.679V2.172z M335.538,4.568L335.538,4.568c0.679,0,1.128-0.299,1.128-0.898c0-0.524-0.379-0.824-1.128-0.824h-1.418v1.723
		H335.538z"/>
	<path fill="#05714B" d="M132.19,20.672L132.19,20.672c3.974-1.424,6.07-5.393,6.07-9.063c0-7.564-5.172-11.01-12.51-11.01H108.45
		v32.056h11.161v-9.512h2.775l5.761,9.512h11.99L132.19,20.672z M127.029,11.609L127.029,11.609c0,2.098-1.348,3.37-3.524,3.37
		h-3.894V8.238h3.974c2.097,0,3.444,1.124,3.444,3.296V11.609z"/>
	<path fill="#05714B" d="M171.138,16.253L171.138,16.253c4.123-0.898,6.219-3.221,6.219-7.115c0-5.468-4.123-8.538-11.311-8.538
		h-18.27v32.056h17.521c8.466,0,12.739-2.996,12.739-9.063C178.036,19.398,175.33,16.628,171.138,16.253z M158.787,7.564
		L158.787,7.564h4.044c2.096,0,3.443,0.898,3.443,2.772v0.074c0,1.799-1.277,2.847-3.523,2.847h-3.964V7.564z M166.495,22.694
		L166.495,22.694c0,1.872-1.418,2.995-3.664,2.995h-4.044v-5.991h4.113c2.177,0,3.595,0.974,3.595,2.921V22.694z"/>
</g>
</svg>
